<?xml version="1.0" encoding="utf-8"?>
<!-- Generator: Adobe Illustrator 22.1.0, SVG Export Plug-In . SVG Version: 6.00 Build 0)  -->
<svg version="1.1" id="Calque_1" xmlns="http://www.w3.org/2000/svg" xmlns:xlink="http://www.w3.org/1999/xlink" x="0px" y="0px"
	 viewBox="0 0 55 55" enable-background="new 0 0 55 55" xml:space="preserve">
<path fill="#BCBEC0" d="M47.4,20.5c0-11-8.9-19.9-19.9-19.9c-11,0-19.9,8.9-19.9,19.9c0,6.3,2.9,11.8,7.4,15.5v0v18.3L27.2,48
	l12.3,6.3v-18C44.3,32.6,47.4,26.9,47.4,20.5z M13.3,16.4c-0.2-0.2-0.4-0.5-0.4-0.8c0-0.5,0.5-0.7,1-0.8l8.8-1.3l4-8
	c0.2-0.3,0.5-0.7,0.9-0.7c0.4,0,0.7,0.4,0.9,0.7l4,8l8.8,1.3c0.4,0.1,1,0.3,1,0.8c0,0.3-0.2,0.6-0.5,0.8l-6.4,6.2l1.5,8.8
	c0,0.1,0,0.2,0,0.4c0,0.5-0.2,0.9-0.7,0.9c-0.2,0-0.5-0.1-0.7-0.2l-7.9-4.2l-7.9,4.2c-0.2,0.1-0.5,0.2-0.7,0.2
	c-0.5,0-0.7-0.4-0.7-0.9c0-0.1,0-0.2,0-0.4l1.5-8.8L13.3,16.4z"/>
</svg>
