<?xml version="1.0" encoding="utf-8"?>
<!-- Generator: Adobe Illustrator 21.1.0, SVG Export Plug-In . SVG Version: 6.00 Build 0)  -->
<svg version="1.1" id="Calque_1" xmlns="http://www.w3.org/2000/svg" xmlns:xlink="http://www.w3.org/1999/xlink" x="0px" y="0px"
	 viewBox="0 0 55 55" style="enable-background:new 0 0 55 55;" xml:space="preserve">
<style type="text/css">
	.st0{fill:#97663F;}
</style>
<path class="st0" d="M47.4,20.5c0-11-8.9-19.9-19.9-19.9S7.6,9.5,7.6,20.5c0,6.3,2.9,11.8,7.4,15.5l0,0v18.3L27.2,48l12.3,6.3v-18
	C44.3,32.6,47.4,26.9,47.4,20.5z M13.3,16.4c-0.2-0.2-0.4-0.5-0.4-0.8c0-0.5,0.5-0.7,1-0.8l8.8-1.3l4-8c0.2-0.3,0.5-0.7,0.9-0.7
	s0.7,0.4,0.9,0.7l4,8l8.8,1.3c0.4,0.1,1,0.3,1,0.8c0,0.3-0.2,0.6-0.5,0.8l-6.4,6.2l1.5,8.8c0,0.1,0,0.2,0,0.4c0,0.5-0.2,0.9-0.7,0.9
	c-0.2,0-0.5-0.1-0.7-0.2l-7.9-4.2l-7.9,4.2c-0.2,0.1-0.5,0.2-0.7,0.2c-0.5,0-0.7-0.4-0.7-0.9c0-0.1,0-0.2,0-0.4l1.5-8.8L13.3,16.4z"
	/>
</svg>
