<svg xmlns="http://www.w3.org/2000/svg" viewBox="0 0 294.93 89.31"><defs><style>.cls-1{fill:#ec1c24;}.cls-2{fill:#fff;}.cls-3{fill:#231f20;}</style></defs><title>Fichier 1logo</title><g id="Calque_2" data-name="Calque 2"><g id="Calque_1-2" data-name="Calque 1"><circle class="cls-1" cx="44.65" cy="44.65" r="44.65"/><text></text><path class="cls-2" d="M33.48,38.84c6.12,1,10.44,5,10.44,11.46,0,8-6.3,13.68-16.08,13.68a26.42,26.42,0,0,1-15.66-5.1l4.32-8.1c3.12,3.36,6.72,5.1,10.5,5.1,4.2,0,6.48-2,6.48-5.46s-2.34-5.28-6.54-5.28H20.22v-5.7l9.36-9.72H14.28V21.56H42v6.06L31.5,38.54Z"/><path class="cls-2" d="M75.12,63.5,68.76,43,62.4,63.5H52.08L40.26,31.16H50.82l6.66,22.38L64,31.16h9.9l6.66,22.38,6.54-22.38H97.2L85.38,63.5Z"/><path class="cls-3" d="M125.28,42.38V63.5H115.14V59.78c-2.1,2.76-5.52,4.2-9.9,4.2-6.9,0-11.1-4.2-11.1-10.14,0-6.12,4.38-9.72,12.42-9.78h8.52v-.48c0-3.18-2.1-5.1-6.3-5.1a22.75,22.75,0,0,0-9.66,2.7l-2.94-6.84a34.13,34.13,0,0,1,15-3.66C120.06,30.68,125.22,35.06,125.28,42.38Zm-10.2,10.14V49.64h-6.54c-3.12,0-4.68,1.08-4.68,3.48S105.54,57,108.42,57C111.66,57,114.42,55.16,115.08,52.52Z"/><path class="cls-3" d="M158,63.5,151.68,43,145.32,63.5H135L123.18,31.16h10.56l6.66,22.38,6.48-22.38h9.9l6.66,22.38L170,31.16h10.14L168.3,63.5Z"/><path class="cls-3" d="M208.2,42.38V63.5H198.06V59.78c-2.1,2.76-5.52,4.2-9.9,4.2-6.9,0-11.1-4.2-11.1-10.14,0-6.12,4.38-9.72,12.42-9.78H198v-.48c0-3.18-2.1-5.1-6.3-5.1a22.75,22.75,0,0,0-9.66,2.7l-2.94-6.84a34.13,34.13,0,0,1,15-3.66C203,30.68,208.14,35.06,208.2,42.38ZM198,52.52V49.64h-6.54c-3.12,0-4.68,1.08-4.68,3.48S188.46,57,191.34,57C194.58,57,197.34,55.16,198,52.52Z"/><path class="cls-3" d="M221.76,36.62a11.8,11.8,0,0,1,10.5-5.94V40c-6-.54-10,2.28-10.5,6.84V63.5H211.38V31.16h10.38Z"/><path class="cls-3" d="M265.74,63.5H255.36V59.24a11.7,11.7,0,0,1-9.72,4.68c-9.12,0-15.12-6.72-15.12-16.74s5.94-16.44,14.88-16.44a12,12,0,0,1,10,4.68V19h10.38Z"/><path class="cls-3" d="M294.88,34.34l-3.54,6.72c-3.9-2.1-7.5-3.24-10.2-3.24-1.86,0-3.18.72-3.18,2.22,0,4.44,17,2.28,17,13.56,0,6.66-5.82,10.32-13.62,10.32a23.92,23.92,0,0,1-14.52-4.56l3.3-6.6a20.75,20.75,0,0,0,11.46,4c2,0,3.54-.72,3.54-2.22,0-4.74-16.74-2.28-16.68-13.62,0-6.66,5.64-10.26,13.14-10.26A26.45,26.45,0,0,1,294.88,34.34Z"/><polygon class="cls-2" points="247.13 34.28 250.1 43.43 259.72 43.43 251.94 49.08 254.91 58.23 247.13 52.58 239.35 58.23 242.32 49.08 234.54 43.43 244.16 43.43 247.13 34.28"/></g></g></svg>